<svg xmlns="http://www.w3.org/2000/svg" width="2538" height="915" fill="none" viewBox="0 0 2538 915">
    <path fill="#000" fill-rule="evenodd" d="M571.76 300.001h121.741c31.756 0 57.5 25.744 57.5 57.5v442.501h30l10 115H571.76c-12.485.002-25.058.004-35.782-.872-11.893-.972-26.477-3.301-41.281-10.845a107.502 107.502 0 0 1-46.98-46.979c-7.543-14.805-9.872-29.388-10.844-41.282-.876-10.724-.874-23.297-.873-35.782l.001-1.74V437.501l-.001-1.74c-.001-12.485-.003-25.058.873-35.782.972-11.894 3.301-26.477 10.844-41.282a107.502 107.502 0 0 1 46.98-46.979c14.804-7.544 29.388-9.873 41.281-10.845 10.724-.876 23.297-.874 35.782-.872Zm64.241 500.001V415.001h-62.5c-10.344 0-17.243.021-22.318.182-.161 5.076-.182 11.975-.182 22.318v340.001c0 10.343.021 17.242.182 22.318 5.075.16 11.974.182 22.318.182h62.5Zm310.76-500.001H1091l10 115H948.501c-10.343 0-17.242.021-22.318.182-.161 5.076-.182 11.975-.182 22.318v477.501h-115V435.761c-.002-12.485-.004-25.058.872-35.782.972-11.894 3.301-26.477 10.845-41.282a107.5 107.5 0 0 1 46.979-46.979c14.805-7.544 29.388-9.873 41.282-10.845 10.723-.876 23.297-.874 35.782-.872ZM1283.76 0h43.48c12.49-.002 25.06-.004 35.78.873 11.9.971 26.48 3.3 41.28 10.844a107.455 107.455 0 0 1 46.98 46.98c7.55 14.804 9.88 29.388 10.85 41.281.87 10.724.87 23.297.87 35.783v259.24l-115 20v-277.5c0-10.344-.02-17.243-.18-22.318-5.08-.161-11.98-.182-22.32-.182h-40c-10.34 0-17.24.021-22.32.182-.16 5.075-.18 11.974-.18 22.318v640.001c0 10.343.02 17.242.18 22.318 5.08.16 11.98.182 22.32.182h40c10.34 0 17.24-.022 22.32-.182.16-5.076.18-11.975.18-22.318V530.001l115-20v269.241c0 12.485 0 25.058-.87 35.782-.97 11.894-3.3 26.477-10.85 41.282a107.455 107.455 0 0 1-46.98 46.979c-14.8 7.544-29.38 9.873-41.28 10.845-10.72.876-23.29.874-35.78.872h-43.48c-12.49.002-25.06.004-35.78-.872-11.9-.972-26.48-3.301-41.28-10.845a107.455 107.455 0 0 1-46.98-46.979c-7.55-14.805-9.88-29.388-10.85-41.282-.87-10.724-.87-23.297-.87-35.782V135.76c0-12.485 0-25.058.87-35.782.97-11.893 3.3-26.477 10.85-41.281a107.455 107.455 0 0 1 46.98-46.98c14.8-7.543 29.38-9.873 41.28-10.844 10.72-.877 23.3-.875 35.78-.873Zm350 300.001h43.48c12.49-.002 25.06-.004 35.78.872 11.9.972 26.48 3.301 41.28 10.845a107.455 107.455 0 0 1 46.98 46.979c7.55 14.805 9.88 29.388 10.85 41.282.87 10.724.87 23.297.87 35.782v343.481c0 12.485 0 25.058-.87 35.782-.97 11.894-3.3 26.477-10.85 41.282a107.455 107.455 0 0 1-46.98 46.979c-14.8 7.544-29.38 9.873-41.28 10.845-10.72.876-23.29.874-35.78.872h-43.48c-12.49.002-25.06.004-35.78-.872-11.9-.972-26.48-3.301-41.28-10.845a107.455 107.455 0 0 1-46.98-46.979c-7.55-14.805-9.88-29.388-10.85-41.282-.87-10.724-.87-23.297-.87-35.782V435.761c0-12.485 0-25.058.87-35.782.97-11.894 3.3-26.477 10.85-41.282a107.455 107.455 0 0 1 46.98-46.979c14.8-7.544 29.38-9.873 41.28-10.845 10.72-.876 23.3-.874 35.78-.872Zm-20.58 115.182c-.16 5.076-.18 11.975-.18 22.318v340.001c0 10.343.02 17.242.18 22.318 5.08.16 11.98.182 22.32.182h40c10.34 0 17.24-.022 22.32-.182.16-5.076.18-11.975.18-22.318V437.501c0-10.343-.02-17.242-.18-22.318-5.08-.161-11.98-.182-22.32-.182h-40c-10.34 0-17.24.021-22.32.182ZM2163 0v800.002h27l10 115h-216.24c-12.48.002-25.06.004-35.78-.872-11.89-.972-26.48-3.302-41.28-10.845a107.46 107.46 0 0 1-46.98-46.979c-7.55-14.805-9.88-29.389-10.85-41.282-.87-10.724-.87-23.297-.87-35.782V435.761c0-12.486 0-25.059.87-35.782.97-11.894 3.3-26.478 10.85-41.282a107.457 107.457 0 0 1 46.98-46.98c14.8-7.543 29.39-9.873 41.28-10.844 10.72-.876 23.3-.875 35.78-.873l1.74.001h62.5V0h115Zm-115 415.001h-62.5c-10.34 0-17.24.021-22.32.182-.16 5.075-.18 11.974-.18 22.318v340c0 10.344.02 17.243.18 22.318 5.08.161 11.98.183 22.32.183h62.5V415.001Zm310.76-115h43.48c12.49-.002 25.06-.004 35.78.872 11.9.972 26.48 3.301 41.29 10.845a107.484 107.484 0 0 1 46.97 46.979c7.55 14.805 9.88 29.388 10.85 41.282.88 10.724.87 23.297.87 35.782v121.74c0 21.78-12.3 41.69-31.78 51.43L2338 693.039v84.463c0 10.343.02 17.242.18 22.318 5.08.16 11.98.182 22.32.182h40c10.34 0 17.24-.022 22.32-.182.16-5.076.18-11.975.18-22.318v-82.5l115-20v104.24c0 12.485.01 25.058-.87 35.782-.97 11.894-3.3 26.477-10.85 41.282a107.484 107.484 0 0 1-46.97 46.979c-14.81 7.544-29.39 9.873-41.29 10.845-10.72.876-23.29.874-35.78.872h-43.48c-12.48.002-25.06.004-35.78-.872-11.89-.972-26.48-3.301-41.28-10.845a107.455 107.455 0 0 1-46.98-46.979c-7.55-14.805-9.88-29.388-10.85-41.282-.87-10.724-.87-23.297-.87-35.782V435.761c0-12.485 0-25.058.87-35.782.97-11.894 3.3-26.477 10.85-41.282a107.455 107.455 0 0 1 46.98-46.979c14.8-7.544 29.39-9.873 41.28-10.845 10.72-.876 23.3-.874 35.78-.872ZM2338 564.464l85-42.5v-84.463c0-10.343-.02-17.242-.18-22.318-5.08-.161-11.98-.182-22.32-.182h-40c-10.34 0-17.24.021-22.32.182-.16 5.076-.18 11.975-.18 22.318v126.963ZM0 0l10 115h26v742.502c0 31.757 25.744 57.5 57.5 57.5h171.741c12.485.002 25.058.004 35.781-.872 11.894-.972 26.478-3.301 41.282-10.845a107.494 107.494 0 0 0 46.979-46.979c7.544-14.805 9.873-29.388 10.845-41.282.876-10.724.874-23.297.872-35.782V535.761c.002-12.485.004-25.058-.872-35.782-.972-11.893-3.301-26.477-10.845-41.282a107.489 107.489 0 0 0-22.22-29.584c.917-4.978 1.458-9.716 1.815-14.09.876-10.723.874-23.297.872-35.782v-243.48c.002-12.486.004-25.059-.872-35.783-.972-11.893-3.301-26.477-10.845-41.281a107.494 107.494 0 0 0-46.979-46.98C296.249 4.174 281.666 1.844 269.772.873 259.049-.004 246.476-.002 233.99 0H0Zm232.25 115c10.343 0 17.242.022 22.318.183.161 5.075.182 11.974.182 22.318v240c0 10.343-.021 17.242-.182 22.318-5.076.161-11.975.182-22.318.182H151V115h81.25Zm31.25 400.001H151v285.001h112.5c10.343 0 17.243-.022 22.318-.182.161-5.076.182-11.975.182-22.318V537.501c0-10.343-.021-17.242-.182-22.317-5.076-.161-11.975-.183-22.318-.183Z" clip-rule="evenodd"/>
</svg>
